<svg id="Layer_1" enable-background="new 0 0 512 512" height="512" viewBox="0 0 512 512" width="512" xmlns="http://www.w3.org/2000/svg"><g><g><g><g id="XMLID_925_"><g id="XMLID_926_"><g id="XMLID_927_"><g id="XMLID_928_"><g id="XMLID_929_"><g id="XMLID_930_"><g id="XMLID_931_"><g id="XMLID_932_"><g id="XMLID_933_"><g id="XMLID_934_"><g id="XMLID_1012_"><g id="XMLID_1013_"><g id="XMLID_1014_"><g id="XMLID_1015_"><g id="XMLID_1016_"><circle cx="256" cy="256" fill="#e0e3ee" r="256"/></g></g></g></g></g></g></g></g></g></g></g></g></g></g></g></g></g><path d="m512 256c0-9.436-.526-18.748-1.521-27.919l-55.276-55.276-228.339-45.038-140.071 91.138 24.832 23.595-3.752 180.5 79.75 79.75c21.768 6.019 44.694 9.25 68.377 9.25 141.385 0 256-114.615 256-256z" fill="#c3cadd"/><g><g><g><g><path d="m404.127 236.63h-296.254v-64.249l148.127-96.381 148.127 96.381z" fill="#fdbf2d"/></g><g><g><path d="m404.13 172.38v64.25h-148.13v-160.63z" fill="#f7a20b"/></g></g><g><path d="m107.873 234.505h296.255v64.248h-296.255z" fill="#fd9827"/></g><g><path d="m256 234.5h148.13v64.25h-148.13z" fill="#ef7a06"/></g><g><path d="m107.873 296.628h296.255v64.248h-296.255z" fill="#fdbf2d"/></g><g><path d="m256 296.63h148.13v64.25h-148.13z" fill="#f7a20b"/></g><g><path d="m107.873 358.752h296.255v64.248h-296.255z" fill="#fd9827"/></g><g><g><path d="m256 358.75h148.13v64.25h-148.13z" fill="#ef7a06"/></g></g></g><g><path d="m425.207 218.905-169.207-110.096-169.207 110.096-29.996-46.1 199.203-129.614 199.203 129.614z" fill="#726565"/></g><g><path d="m206.705 296.628h98.591v126.372h-98.591z" fill="#726565"/></g></g><g><g><path d="m455.2 172.8-29.99 46.11-21.08-13.72-148.13-96.38v-65.62z" fill="#514747"/></g><g><path d="m256 296.63h49.3v126.37h-49.3z" fill="#514747"/></g></g></g></g></svg>
